<svg width="48" height="48" viewBox="0 0 48 48" fill="none" xmlns="http://www.w3.org/2000/svg">
<path fill-rule="evenodd" clip-rule="evenodd" d="M10 1H38C42.9706 1 47 5.02944 47 10V38C47 42.9706 42.9706 47 38 47H10C5.02944 47 1 42.9706 1 38V10C1 5.02944 5.02944 1 10 1ZM0 10C0 4.47715 4.47715 0 10 0H38C43.5229 0 48 4.47715 48 10V38C48 43.5229 43.5228 48 38 48H10C4.47715 48 0 43.5228 0 38V10ZM29.7866 17.3178C29.7866 20.1236 27.3009 22.6356 23.931 22.6356C20.5611 22.6356 18.0754 20.1236 18.0754 17.3178C18.0754 14.5121 20.5611 12 23.931 12C27.3009 12 29.7866 14.5121 29.7866 17.3178ZM19.2685 25.115C19.0354 25.115 18.8043 25.1227 18.5755 25.1378C13.7803 25.454 10 29.0254 10 33.3845C10 35.9336 12.3161 38 15.1731 38H32.8269C35.6839 38 38 35.9336 38 33.3845C38 28.9874 34.1535 25.3918 29.2988 25.1303C29.1111 25.1202 28.922 25.115 28.7315 25.115H23.931H19.2685ZM19.2685 23.2079C19.2245 23.1776 19.1808 23.1469 19.1374 23.1157C17.2751 21.7776 16.0754 19.6782 16.0754 17.3178C16.0754 13.2763 19.5925 10 23.931 10C28.2695 10 31.7866 13.2763 31.7866 17.3178C31.7866 19.6778 30.5873 21.7769 28.7255 23.115C27.399 24.0685 25.7361 24.6356 23.931 24.6356C22.1853 24.6356 20.5726 24.1052 19.2685 23.2079ZM12 33.3845C12 30.1304 15.0336 27.115 19.2685 27.115H28.7315C32.9664 27.115 36 30.1304 36 33.3845C36 34.6206 34.7999 36 32.8269 36H15.1731C13.2001 36 12 34.6206 12 33.3845Z" fill="#878787"/>
</svg>
