<svg width="86" height="33" viewBox="0 0 86 33" fill="none" xmlns="http://www.w3.org/2000/svg">
<g clip-path="url(#clip0_1144_578)">
<rect width="86" height="33" rx="8" fill="white"/>
<path fill-rule="evenodd" clip-rule="evenodd" d="M68.7778 -6C66.6914 -6 65 -4.30863 65 -2.22222V7.22222C65 9.30863 66.6914 11 68.7778 11H78.2222C80.3086 11 82 9.30863 82 7.22222V-2.22222C82 -4.30863 80.3086 -6 78.2222 -6H68.7778ZM78.8125 -4.9375H75.2708H71.9062V-1.75H81.1146C81.1146 -2.7932 80.7604 -4.58333 78.8125 -4.9375ZM81.1146 -0.864583H71.9062V1.96875H81.1146V-0.864583ZM71.0208 -0.864583V1.96875H66.0625V-0.864583H71.0208ZM71.0208 5.86458V2.85417H66.0625V5.86458H71.0208ZM71.0208 6.75H66.0625C66.0625 7.7932 66.0625 9.22917 68.1875 9.9375H71.0208V6.75ZM71.9062 6.75H81.1146C81.1146 7.7932 80.5833 9.58333 78.8125 9.9375H71.9062V6.75ZM81.1146 5.86458V2.85417H71.9062V5.86458H81.1146ZM71.0208 -1.75V-4.9375H68.3646C66.2396 -4.58333 66.0625 -2.7932 66.0625 -1.75H71.0208Z" fill="#2A5EBD"/>
<path d="M5.61521 21.3976C5.61521 22.965 4.24013 24.2951 2.46796 24.2951C0.695795 24.2951 -0.67929 22.965 -0.67929 21.3976C-0.67929 19.8301 0.695795 18.5 2.46796 18.5C4.24013 18.5 5.61521 19.8301 5.61521 21.3976ZM-3.5 28.8571C-3.5 27.0649 -1.85238 25.5177 0.303245 25.5177H4.69675C6.85238 25.5177 8.5 27.0649 8.5 28.8571C8.5 29.7123 7.70368 30.5 6.59819 30.5H-1.59819C-2.70368 30.5 -3.5 29.7123 -3.5 28.8571Z" stroke="#2A5EBD"/>
<path d="M21.233 -9.78727L21.4812 -9.561L21.7846 -9.70527C22.0251 -9.81965 22.2727 -9.92134 22.5267 -10.0095L22.8538 -10.123L22.8625 -10.4692C22.8908 -11.5859 23.8276 -12.5 24.9999 -12.5C26.1847 -12.5 27.1286 -11.5667 27.1379 -10.4338L27.1407 -10.0874L27.466 -9.96836C27.7062 -9.88044 27.9406 -9.78033 28.1683 -9.66877L28.4808 -9.51572L28.7329 -9.75556C29.5703 -10.5523 30.8955 -10.5396 31.7176 -9.7175C32.5516 -8.88348 32.5525 -7.53185 31.7204 -6.69669L31.4749 -6.45036L31.6204 -6.13454C31.7195 -5.91957 31.8085 -5.69903 31.8867 -5.47351L32.0011 -5.14415L32.3496 -5.13757C33.5508 -5.11488 34.5 -4.15702 34.5 -2.99994C34.5 -1.83132 33.5316 -0.86583 32.3135 -0.861917L31.9653 -0.860798L31.8456 -0.533792C31.7677 -0.320998 31.6803 -0.112792 31.5837 0.0903101L31.4323 0.408976L31.6818 0.658456L31.7173 0.694005C32.5523 1.52897 32.5523 2.88269 31.7173 3.71764C30.8823 4.55259 29.5286 4.55257 28.6937 3.71761L28.3401 4.07116L28.6937 3.7176L28.658 3.682L28.4086 3.43253L28.0899 3.58393C27.8869 3.68039 27.6788 3.7678 27.4661 3.84566L27.138 3.96576V4.31519V4.41666C27.138 5.55743 26.1907 6.5 24.9999 6.5C23.8092 6.5 22.8619 5.55743 22.8619 4.41666V4.35889V4.00321L22.5259 3.88655C22.3005 3.8083 22.0801 3.71938 21.8653 3.62039L21.5495 3.47487L21.3032 3.72029C20.468 4.55236 19.1164 4.55139 18.2824 3.71738C17.4603 2.8953 17.4477 1.57017 18.2444 0.732777L18.4842 0.480696L18.3311 0.168219C18.2192 -0.0603781 18.1188 -0.295609 18.0306 -0.53673L17.9166 -0.848711L17.5848 -0.864493C16.4148 -0.920144 15.5 -1.86396 15.5 -2.99994C15.5 -4.12408 16.3957 -5.05996 17.5482 -5.13336L17.8801 -5.15449L17.9889 -5.46871C18.0774 -5.72425 18.1796 -5.97341 18.2947 -6.21532L18.4389 -6.51866L18.2127 -6.7669C17.4481 -7.60569 17.4714 -8.90651 18.2824 -9.71753C19.0934 -10.5285 20.3942 -10.5518 21.233 -9.78727ZM24.8985 0.874098C27.0721 0.874098 28.8341 -0.887921 28.8341 -3.06148C28.8341 -5.23505 27.0721 -6.99707 24.8985 -6.99707C22.7249 -6.99707 20.9629 -5.23505 20.9629 -3.06148C20.9629 -0.887921 22.7249 0.874098 24.8985 0.874098Z" stroke="#2A5EBD"/>
<path d="M45.233 29.2127L45.4812 29.439L45.7846 29.2947C46.0251 29.1803 46.2727 29.0787 46.5267 28.9905L46.8538 28.877L46.8625 28.5308C46.8908 27.4141 47.8276 26.5 48.9999 26.5C50.1847 26.5 51.1286 27.4333 51.1379 28.5662L51.1407 28.9126L51.466 29.0316C51.7062 29.1196 51.9406 29.2197 52.1683 29.3312L52.4808 29.4843L52.7329 29.2444C53.5703 28.4477 54.8955 28.4604 55.7176 29.2825C56.5516 30.1165 56.5525 31.4682 55.7204 32.3033L55.4749 32.5496L55.6204 32.8655C55.7195 33.0804 55.8085 33.301 55.8867 33.5265L56.0011 33.8558L56.3496 33.8624C57.5508 33.8851 58.5 34.843 58.5 36.0001C58.5 37.1687 57.5316 38.1342 56.3135 38.1381L55.9653 38.1392L55.8456 38.4662C55.7677 38.679 55.6803 38.8872 55.5837 39.0903L55.4323 39.409L55.6818 39.6585L55.7173 39.694C56.5523 40.529 56.5523 41.8827 55.7173 42.7176C54.8823 43.5526 53.5286 43.5526 52.6937 42.7176L52.3401 43.0712L52.6937 42.7176L52.658 42.682L52.4086 42.4325L52.0899 42.5839C51.8869 42.6804 51.6788 42.7678 51.4661 42.8457L51.138 42.9658V43.3152V43.4167C51.138 44.5574 50.1907 45.5 48.9999 45.5C47.8092 45.5 46.8619 44.5574 46.8619 43.4167V43.3589V43.0032L46.5259 42.8865C46.3005 42.8083 46.0801 42.7194 45.8653 42.6204L45.5495 42.4749L45.3032 42.7203C44.468 43.5524 43.1164 43.5514 42.2824 42.7174C41.4603 41.8953 41.4477 40.5702 42.2444 39.7328L42.4842 39.4807L42.3311 39.1682C42.2192 38.9396 42.1188 38.7044 42.0306 38.4633L41.9166 38.1513L41.5848 38.1355C40.4148 38.0799 39.5 37.136 39.5 36.0001C39.5 34.8759 40.3957 33.94 41.5482 33.8666L41.8801 33.8455L41.9889 33.5313C42.0774 33.2758 42.1796 33.0266 42.2947 32.7847L42.4389 32.4813L42.2127 32.2331C41.4481 31.3943 41.4714 30.0935 42.2824 29.2825C43.0934 28.4715 44.3942 28.4482 45.233 29.2127ZM48.8985 39.8741C51.0721 39.8741 52.8341 38.1121 52.8341 35.9385C52.8341 33.765 51.0721 32.0029 48.8985 32.0029C46.7249 32.0029 44.9629 33.765 44.9629 35.9385C44.9629 38.1121 46.7249 39.8741 48.8985 39.8741Z" stroke="#2A5EBD"/>
</g>
<rect x="1" y="1" width="84" height="31" rx="7" stroke="#2A5EBD" stroke-width="2"/>
<defs>
<clipPath id="clip0_1144_578">
<rect width="86" height="33" rx="8" fill="white"/>
</clipPath>
</defs>
</svg>
