<svg width="48" height="48" viewBox="0 0 48 48" fill="none" xmlns="http://www.w3.org/2000/svg">
<path fill-rule="evenodd" clip-rule="evenodd" d="M10 1H38C42.9706 1 47 5.02944 47 10V38C47 42.9706 42.9706 47 38 47H10C5.02944 47 1 42.9706 1 38V10C1 5.02944 5.02944 1 10 1ZM0 10C0 4.47715 4.47715 0 10 0H38C43.5229 0 48 4.47715 48 10V38C48 43.5229 43.5228 48 38 48H10C4.47715 48 0 43.5228 0 38V10ZM10 16.2222C10 12.7858 12.7858 10 16.2222 10H31.7778C35.2142 10 38 12.7858 38 16.2222V31.7778C38 35.2142 35.2142 38 31.7778 38H16.2222C12.7858 38 10 35.2142 10 31.7778V16.2222ZM26.9167 11.75H32.75C35.9583 12.3333 36.5417 15.2818 36.5417 17H21.375V11.75H26.9167ZM21.375 18.4583H36.5417V23.125H21.375V18.4583ZM19.9167 23.125V18.4583H11.75V23.125H19.9167ZM19.9167 24.5833V29.5417H11.75V24.5833H19.9167ZM11.75 31H19.9167V36.25H15.25C11.75 35.0833 11.75 32.7182 11.75 31ZM36.5417 31H21.375V36.25H32.75C35.6667 35.6667 36.5417 32.7182 36.5417 31ZM36.5417 24.5833V29.5417H21.375V24.5833H36.5417ZM19.9167 11.75V17H11.75C11.75 15.2818 12.0417 12.3333 15.5417 11.75H19.9167Z" fill="#878787"/>
</svg>
